<svg xmlns="http://www.w3.org/2000/svg" viewBox="0 0 180 48" role="img" aria-labelledby="title desc">
  <title id="title">Content Getter Logo</title>
  <desc id="desc">Stylized CG monogram with gradient pill shape</desc>
  <defs>
    <linearGradient id="lg" x1="0" y1="0" x2="1" y2="1">
      <stop offset="0%" stop-color="#0bbbe8"/>
      <stop offset="100%" stop-color="#055b73"/>
    </linearGradient>
    <linearGradient id="txt" x1="0" y1="0" x2="1" y2="0">
      <stop offset="0%" stop-color="#ffffff"/>
      <stop offset="100%" stop-color="#d4f7ff"/>
    </linearGradient>
    <filter id="shadow" x="-10%" y="-30%" width="130%" height="160%" color-interpolation-filters="sRGB">
      <feDropShadow dx="0" dy="3" stdDeviation="4" flood-color="#012d38" flood-opacity="0.35"/>
    </filter>
  </defs>
  <g filter="url(#shadow)">
    <rect x="4" y="4" rx="20" width="172" height="40" fill="url(#lg)" />
  </g>
  <g font-family="Inter,Segoe UI,Roboto,Arial,sans-serif" font-weight="700" font-size="24" fill="url(#txt)" letter-spacing="1">
    <text x="28" y="33">C</text>
    <text x="60" y="33">G</text>
  </g>
  <g fill="#e9fcff" opacity="0.9">
    <path d="M108 16h5.2l6.1 16h-5l-1-3h-5.7l-1.1 3h-4.7L108 16Zm4.4 10-1.8-5.5-1.9 5.5h3.7Z"/>
    <path d="M122.2 16h4.6v12.4h7.5V32h-12.1V16Z"/>
    <path d="M136.5 16h4.7v16h-4.7V16Z"/>
    <path d="M144.4 16h4.6v12.4h7.5V32h-12.1V16Z"/>
    <path d="M158.7 16h4.7v16h-4.7V16Z"/>
  </g>
</svg>

